<?xml version="1.0" standalone="no"?>
<!DOCTYPE svg PUBLIC "-//W3C//DTD SVG 20010904//EN" "http://www.w3.org/TR/2001/REC-SVG-20010904/DTD/svg10.dtd">
<svg xmlns="http://www.w3.org/2000/svg" version="1.0" width="438.000000pt" height="569.000000pt" viewBox="0 0 438.000000 569.000000" preserveAspectRatio="xMidYMid meet">
<metadata>
Created by potrace 1.16, written by Peter Selinger 2001-2019
<meta name="Producer" content="Online-Convert"/></metadata>
<g transform="translate(0.000000,569.000000) scale(0.100000,-0.100000)" fill="#000000" stroke="none">
<path d="M2020 5458 c-1101 -114 -1931 -1357 -1859 -2783 46 -921 461 -1741 1094 -2164 749 -501 1673 -342 2293 394 634 753 836 1944 502 2955 -347 1050 -1158 1689 -2030 1598z m184 -150 c3 -29 7 -84 8 -123 l3 -70 -31 -3 c-28 -3 -39 5 -91 62 l-59 66 4 -70 4 -70 -30 0 c-36 0 -37 6 -48 148 l-6 92 35 0 c31 0 43 -8 92 -62 l57 -63 -4 67 c-4 71 -4 70 49 77 7 0 14 -20 17 -51z m222 24 c11 -7 68 -242 61 -249 -9 -9 -67 11 -67 23 0 31 -78 46 -100 19 -11 -13 -80 -22 -80 -10 0 2 27 54 61 115 54 97 64 110 88 110 14 0 31 -4 37 -8z m-604 -42 c55 -16 88 -60 88 -121 0 -42 -5 -55 -33 -85 -28 -31 -42 -37 -83 -41 -87 -9 -144 39 -144 121 0 64 33 106 99 126 35 11 32 11 73 0z m795 -1 l31 -10 -23 -72 c-13 -40 -26 -80 -30 -89 -5 -13 1 -18 30 -24 33 -6 36 -9 30 -33 -4 -14 -8 -27 -10 -29 -7 -7 -130 36 -130 45 0 10 67 223 70 223 1 0 16 -5 32 -11z m-973 -306 c-36 -26 -48 -15 -94 84 -25 54 -45 102 -45 108 0 5 11 15 25 22 25 12 26 11 79 -94 50 -100 52 -108 35 -120z m1303 166 c60 -34 79 -63 69 -104 -15 -58 -70 -81 -128 -51 -25 13 -27 12 -44 -19 -17 -33 -19 -33 -46 -19 -15 8 -28 17 -28 21 0 8 114 203 119 203 2 0 28 -14 58 -31z m-1484 -28 c22 -38 22 -41 -7 -41 -52 0 -74 -62 -36 -100 32 -32 73 -22 97 23 9 17 12 16 31 -15 l22 -33 -30 -27 c-40 -37 -75 -44 -124 -27 -106 37 -115 183 -15 232 44 21 42 22 62 -12z m1688 -107 c54 -39 55 -41 34 -68 -13 -18 -15 -18 -43 2 -21 16 -32 18 -40 10 -8 -8 -4 -16 14 -30 28 -22 29 -28 10 -53 -13 -18 -14 -18 -44 3 -26 19 -31 20 -36 6 -4 -9 5 -24 22 -39 26 -23 26 -23 8 -44 -21 -23 -22 -22 -100 42 l-29 24 69 91 c38 50 73 92 78 92 4 0 30 -16 57 -36z m-716 -43 c247 -61 442 -171 634 -356 347 -335 565 -798 653 -1390 21 -142 18 -639 -5 -785 -75 -480 -245 -891 -495 -1202 -80 -98 -234 -244 -331 -312 -518 -365 -1148 -297 -1621 174 -533 530 -768 1460 -590 2331 82 400 238 740 471 1029 98 121 170 191 289 279 165 124 365 213 551 246 114 20 336 13 444 -14z m-1136 -57 c58 -32 108 -58 110 -60 11 -10 -47 -43 -67 -39 -32 8 -85 -33 -78 -61 4 -14 -2 -28 -19 -44 -14 -13 -26 -22 -28 -19 -2 2 -22 56 -44 120 l-41 116 21 22 c12 11 26 21 31 21 5 0 57 -25 115 -56z m2057 -116 c8 -46 -19 -104 -57 -123 -58 -30 -117 -15 -176 47 l-32 33 82 88 82 87 48 -48 c33 -33 49 -59 53 -84z m-2167 -115 c13 -11 12 -16 -9 -38 -24 -26 -27 -26 -110 -20 l-85 7 53 -48 54 -49 -24 -23 -25 -23 -86 76 c-48 42 -87 79 -87 82 0 4 10 17 21 29 20 21 28 23 103 18 l81 -5 -49 45 -50 46 24 25 23 25 76 -67 c42 -37 82 -72 90 -80z m2304 -2 c44 -58 48 -97 13 -130 -18 -17 -33 -22 -55 -19 -29 4 -31 2 -46 -50 -16 -52 -17 -54 -35 -37 -29 26 -32 47 -16 94 l15 41 -33 -25 -34 -26 -20 27 -19 27 91 73 c50 40 93 73 96 74 3 0 23 -22 43 -49z m141 -202 c37 -29 56 -71 56 -123 0 -36 -6 -50 -31 -75 -56 -57 -134 -55 -185 4 -56 64 -51 144 11 193 38 30 112 30 149 1z m-2774 -42 c35 -17 62 -74 57 -118 -5 -38 -52 -119 -70 -119 -8 0 -180 101 -195 115 -8 7 51 96 75 115 30 23 94 27 133 7z m-21 -263 c2 -2 -2 -17 -9 -34 -9 -22 -19 -30 -36 -30 -18 0 -29 -9 -41 -35 -16 -33 -16 -37 -1 -52 15 -15 15 -19 1 -46 l-15 -30 -91 91 -90 90 13 32 13 32 126 -7 c69 -4 128 -9 130 -11z m3000 -65 c29 -70 27 -103 -5 -128 -32 -25 -67 -27 -85 -5 -11 13 -17 8 -44 -40 l-31 -56 -18 36 c-17 36 -17 37 10 77 27 42 25 44 -28 22 -13 -5 -21 0 -29 19 -8 16 -9 30 -3 36 8 8 192 89 205 90 4 0 16 -23 28 -51z m-3174 -149 c40 -38 48 -83 25 -149 -11 -30 -20 -57 -20 -58 0 -11 -208 55 -228 72 -12 10 38 112 67 137 30 27 40 30 83 26 32 -4 57 -13 73 -28z m3254 -52 c6 -17 10 -32 9 -33 -2 -1 -35 -12 -75 -24 -76 -23 -97 -39 -91 -68 5 -27 49 -28 124 -3 36 12 67 20 70 17 3 -2 6 -17 7 -32 2 -26 -3 -29 -68 -52 -96 -33 -142 -28 -172 16 -30 45 -31 110 -2 137 16 15 151 70 181 73 3 1 11 -13 17 -31z m-3319 -191 c46 -13 60 -36 41 -65 -7 -11 -28 -8 -116 17 -59 16 -110 32 -112 35 -3 2 -2 18 2 34 l6 30 67 -19 c37 -10 87 -25 112 -32z m3395 -68 c4 -17 5 -32 3 -33 -11 -10 -220 -56 -228 -51 -6 3 -10 19 -10 34 0 26 4 28 103 53 130 33 124 33 132 -3z m-3565 -24 c10 -12 10 -21 2 -40 -19 -40 7 -41 40 -1 23 28 37 36 62 36 72 0 101 -58 67 -135 -21 -48 -34 -54 -62 -29 -17 15 -17 17 3 44 20 28 18 50 -5 50 -7 0 -21 -14 -31 -31 -34 -58 -102 -57 -135 2 -13 24 -13 31 3 73 18 48 35 57 56 31z m3594 -92 c22 -113 28 -154 23 -160 -4 -3 -42 7 -84 22 -43 16 -84 30 -91 33 -11 4 -12 -5 -7 -40 6 -41 5 -46 -16 -51 -12 -3 -26 -4 -29 -2 -10 6 -44 184 -37 192 4 3 48 -10 99 -30 51 -19 94 -34 95 -33 1 1 -2 19 -7 41 -9 42 -2 55 32 55 10 0 18 -11 22 -27z m-3557 -139 l19 -25 47 27 48 26 -3 -38 c-3 -35 -8 -41 -46 -61 l-44 -22 36 -6 c31 -6 36 -11 36 -36 0 -15 -3 -30 -7 -32 -10 -6 -219 26 -228 35 -13 13 7 120 26 139 29 29 93 26 116 -7z m3590 -228 c28 -30 33 -43 33 -86 0 -41 -5 -56 -29 -82 l-28 -32 -18 34 c-16 30 -16 34 -1 42 24 13 20 64 -6 82 -46 32 -108 7 -108 -43 0 -16 7 -34 15 -41 13 -11 15 -8 15 14 0 21 5 26 24 26 19 0 24 -6 30 -37 12 -78 10 -83 -35 -83 -33 0 -47 6 -75 34 -29 29 -34 41 -34 80 0 90 53 141 140 132 35 -3 51 -11 77 -40z m-3689 -3 c-2 -29 1 -38 15 -41 14 -3 17 4 17 32 0 34 2 36 31 36 31 0 31 -1 26 -35 -5 -30 -3 -35 14 -35 15 0 19 7 19 36 0 33 2 36 23 30 12 -3 25 -6 30 -6 8 0 7 -62 -2 -105 -5 -22 -12 -29 -26 -28 -11 1 -64 5 -117 8 l-98 7 0 31 c0 18 3 49 6 70 6 33 10 37 36 37 27 0 29 -2 26 -37z m155 -234 c20 -11 23 -42 5 -57 -15 -12 -213 -92 -228 -92 -6 0 -10 15 -10 34 0 33 2 35 65 56 36 12 65 25 65 28 0 4 -28 18 -63 32 -48 20 -63 30 -65 48 -8 53 2 54 110 6 57 -25 111 -50 121 -55z m3458 -31 l110 -43 -3 -39 -3 -39 -117 -42 -118 -42 0 37 c0 29 4 39 20 43 16 4 20 14 20 47 0 33 -4 43 -20 47 -15 4 -20 14 -20 39 0 19 5 34 10 34 6 0 60 -19 121 -42z m-3441 -178 c0 -17 -6 -33 -12 -35 -7 -2 -61 -5 -120 -7 l-106 -3 -4 32 c-5 38 0 39 150 41 l92 2 0 -30z m3458 -59 c45 -5 85 -10 88 -13 3 -3 2 -18 -2 -33 l-7 -28 -88 6 -88 6 -7 -35 c-6 -31 -10 -35 -33 -32 -14 2 -25 6 -23 11 1 4 2 34 2 67 l0 60 38 -1 c20 0 74 -4 120 -8z m-3453 -51 c6 -26 0 -35 -60 -93 l-67 -63 69 7 c37 4 68 6 69 6 1 -1 4 -14 8 -30 4 -18 2 -29 -6 -32 -21 -8 -228 -32 -233 -26 -3 2 -5 19 -5 36 0 26 11 43 60 89 l60 57 -68 -3 -67 -3 -3 31 -3 31 88 10 c151 17 151 17 158 -17z m3519 -141 c5 -4 5 -20 2 -35 -7 -26 -9 -26 -59 -20 -29 3 -69 9 -89 12 -36 6 -37 6 -44 -30 -6 -33 -10 -37 -33 -34 -28 3 -29 7 -16 99 l6 45 112 -14 c62 -8 116 -18 121 -23z m-3495 -148 c28 -28 43 -91 31 -127 -14 -40 -37 -52 -135 -74 l-84 -18 -6 30 c-4 16 -5 32 -2 35 3 3 41 13 84 22 73 15 78 18 81 44 5 37 -16 43 -106 28 -81 -14 -95 -8 -90 34 2 14 16 22 58 31 90 19 147 17 169 -5z m3405 -10 c38 -26 55 -57 56 -104 0 -79 -54 -137 -128 -137 -107 0 -159 104 -103 208 27 51 122 68 175 33z m-938 -1408 c11 -15 9 -22 -13 -44 -32 -34 -14 -48 26 -20 28 20 28 20 46 1 18 -20 17 -21 -5 -45 -18 -19 -21 -28 -12 -37 9 -9 18 -6 37 12 25 24 26 24 45 4 20 -20 20 -20 -31 -69 l-51 -50 -85 89 -86 90 49 43 c55 48 62 50 80 26z m-1691 -13 c17 -19 16 -21 -39 -83 -31 -35 -56 -67 -56 -72 0 -4 10 -15 21 -24 19 -15 20 -20 8 -39 -8 -12 -19 -22 -24 -22 -13 0 -95 82 -95 95 0 10 151 165 161 165 3 0 14 -9 24 -20z m1613 -142 c66 -91 70 -130 17 -177 -73 -64 -112 -53 -189 52 -47 65 -48 68 -31 87 10 11 21 20 26 20 4 0 30 -29 58 -65 53 -67 82 -81 100 -47 11 20 5 34 -52 111 l-40 54 24 18 c13 10 26 19 29 19 3 0 29 -32 58 -72z m-1450 6 c12 -8 22 -23 22 -32 0 -20 -55 -221 -63 -228 -3 -3 -17 2 -31 11 -19 13 -24 23 -20 40 8 32 -49 74 -78 56 -15 -9 -23 -8 -43 6 -13 10 -25 21 -25 25 0 9 190 136 205 137 6 1 21 -6 33 -15z m162 -166 l0 -62 43 42 c41 40 46 42 70 31 15 -7 27 -17 27 -24 0 -16 -56 -214 -62 -221 -7 -6 -58 17 -58 27 0 4 4 18 9 31 4 13 11 36 15 52 l7 29 -47 -42 c-68 -59 -76 -56 -72 29 2 39 2 70 2 70 -1 0 -16 -22 -34 -50 -18 -27 -34 -50 -37 -50 -4 0 -45 20 -51 26 -2 1 27 48 64 103 l68 100 28 -15 c26 -14 28 -19 28 -76z m1071 57 c38 -20 69 -70 69 -112 0 -18 3 -33 8 -33 4 0 13 -4 21 -9 21 -13 -4 -41 -36 -41 -13 0 -37 -9 -52 -21 -67 -49 -160 -28 -194 44 -22 46 -21 75 3 115 40 65 118 89 181 57z m-221 -81 c13 -34 15 -32 -25 -40 -32 -6 -44 -21 -29 -37 3 -3 19 -1 35 5 35 12 35 12 44 -24 6 -23 3 -27 -24 -33 -18 -4 -31 -13 -31 -22 0 -12 8 -14 39 -9 34 5 39 3 45 -16 3 -13 2 -26 -2 -29 -7 -7 -109 -39 -122 -39 -4 0 -19 46 -35 101 l-28 102 -28 -54 c-24 -46 -27 -62 -22 -110 5 -55 5 -56 -22 -63 -15 -4 -30 -5 -33 -1 -3 3 -9 30 -13 61 -6 47 -14 63 -55 106 -36 39 -44 52 -33 59 27 17 63 9 85 -18 l21 -26 18 30 c15 25 31 34 104 55 47 14 89 26 94 27 4 0 12 -11 17 -25z m-551 -29 c18 -18 17 -61 -2 -83 -13 -15 -13 -19 -1 -30 23 -21 13 -72 -17 -94 -24 -18 -28 -18 -96 -3 l-70 16 24 107 c13 59 25 112 28 119 5 14 112 -11 134 -32z m213 -125 c21 -63 38 -118 38 -122 0 -4 -11 -8 -24 -8 -24 0 -56 23 -56 41 0 5 -20 9 -44 9 -35 0 -45 -4 -49 -20 -4 -15 -14 -20 -41 -20 -20 0 -36 3 -36 6 0 3 16 42 36 87 20 45 43 97 51 115 12 30 17 33 50 30 l36 -3 39 -115z"/>
<path d="M1990 4247 c-106 -44 -194 -122 -248 -221 -17 -31 -17 -30 -22 89 l-5 120 -218 3 -217 3 2 -1233 3 -1233 23 -75 c32 -103 102 -244 156 -312 104 -130 289 -245 471 -290 130 -32 381 -32 505 0 156 41 242 83 357 175 125 100 225 258 281 442 l27 90 3 1217 2 1217 -217 -2 -218 -2 -5 -119 -5 -120 -37 61 c-45 72 -109 133 -177 167 -28 14 -54 26 -58 26 -4 -1 15 -13 42 -27 132 -68 227 -198 264 -362 7 -32 6 -38 -7 -37 -9 0 -17 -7 -18 -17 -1 -12 -1 -13 3 -2 2 8 9 13 14 10 16 -10 10 -25 -13 -35 -17 -6 -18 -9 -6 -9 9 -1 20 4 23 9 9 15 25 2 25 -21 0 -11 -4 -17 -10 -14 -6 4 -7 -1 -3 -11 5 -13 3 -16 -10 -11 -9 3 -17 2 -17 -3 0 -5 10 -10 23 -12 15 -2 23 -11 25 -28 l4 -25 -24 23 c-33 30 -43 28 -12 -3 25 -25 25 -45 -1 -45 -16 0 -30 18 -20 28 3 3 10 0 15 -8 8 -12 10 -12 10 -2 0 8 -9 16 -21 19 -17 5 -19 11 -13 37 3 17 12 34 18 38 8 6 8 8 0 8 -6 0 -18 -10 -26 -21 -10 -16 -19 -20 -37 -14 -22 7 -22 7 -4 27 18 20 18 21 -3 10 -12 -6 -24 -8 -28 -5 -6 6 -10 -16 -9 -46 1 -9 -2 -10 -10 -2 -6 6 -19 11 -28 11 -10 0 -20 10 -22 23 -3 12 -2 -4 1 -35 l5 -58 -50 0 c-28 0 -65 -3 -83 -7 -24 -4 -31 -3 -26 5 5 9 -39 12 -174 12 -100 0 -179 -4 -176 -9 3 -4 -26 -6 -64 -3 l-69 5 12 -26 c12 -26 12 -26 18 -4 5 22 5 22 12 -3 13 -47 84 -110 123 -110 54 0 85 80 47 122 -15 17 -12 18 107 18 l124 0 -22 -20 c-12 -12 -22 -32 -22 -46 0 -29 41 -74 67 -74 31 0 82 38 111 83 27 43 30 45 100 39 22 -2 22 -3 7 -38 -8 -20 -15 -42 -14 -48 0 -6 8 9 18 34 20 48 30 55 66 46 29 -7 34 -40 9 -50 -12 -4 -14 -13 -10 -32 6 -22 4 -25 -14 -19 -18 6 -20 2 -20 -42 0 -51 12 -73 41 -73 11 0 19 -11 23 -31 12 -60 9 -66 -39 -78 -25 -6 -45 -15 -44 -19 2 -32 28 -122 28 -102 1 20 3 22 11 10 8 -11 9 -8 4 13 -12 54 -10 60 25 69 18 5 35 8 37 6 2 -2 6 -22 10 -45 6 -38 4 -42 -17 -46 -23 -4 -22 -4 3 -6 20 -1 28 4 31 22 3 13 5 8 6 -15 0 -21 -3 -38 -9 -38 -5 0 -8 -6 -6 -12 15 -49 14 -77 -2 -81 -12 -3 -11 -5 6 -6 35 -2 26 -21 -10 -21 l-33 0 0 -62 c-2 -517 -9 -1055 -14 -1028 -6 30 -8 25 -15 -39 -32 -309 -184 -501 -409 -518 -134 -10 -242 31 -328 125 -86 94 -145 250 -151 397 l-3 70 65 6 65 6 -66 1 -66 2 -8 509 c-4 280 -4 514 0 520 4 7 -7 11 -29 11 -20 0 -36 5 -36 10 0 6 8 10 18 10 11 0 13 3 6 8 -7 4 -15 38 -19 77 -7 63 -6 69 8 57 9 -8 26 -12 39 -9 20 4 20 4 -5 6 -26 1 -27 3 -22 44 3 35 3 37 -4 12 -8 -28 -9 -28 -10 -5 0 14 2 35 5 48 6 19 11 22 38 18 17 -3 25 -3 19 0 -7 3 -13 23 -13 45 0 22 -4 38 -9 34 -5 -3 -12 4 -16 15 -4 13 -15 20 -30 20 -24 0 -31 13 -36 60 -4 37 1 41 28 23 26 -17 27 -17 20 0 -4 11 -10 30 -13 43 -6 23 -4 24 36 24 l42 0 -6 -35 c-7 -33 5 -48 19 -25 3 6 2 10 -3 10 -5 0 -7 11 -4 25 3 17 -1 27 -12 31 -20 8 -21 44 -1 44 8 0 12 6 10 13 -3 6 4 18 15 25 17 10 20 10 20 -2 0 -8 -6 -17 -12 -19 -8 -3 -5 -6 5 -6 11 -1 25 -17 37 -43 11 -24 20 -37 20 -30 0 7 -7 26 -15 42 l-16 30 31 0 c29 0 30 1 30 49 0 104 68 246 146 306 19 14 53 35 76 46 27 13 33 18 17 15 -23 -5 -26 -3 -21 19 2 14 0 25 -5 25 -5 0 -8 -12 -7 -27 0 -21 -9 -33 -45 -58 -42 -28 -47 -29 -53 -13 -4 10 -15 18 -25 18 -13 1 -8 10 21 35 31 28 45 34 68 30 17 -3 27 -2 24 4 -20 32 73 58 173 48 31 -3 48 -2 38 2 -17 6 -17 8 2 25 11 10 24 15 30 12 5 -3 11 -1 13 5 3 8 15 6 38 -6 32 -17 33 -18 15 -31 -25 -19 -43 -18 -48 4 -4 16 -5 16 -6 0 0 -10 -7 -18 -13 -18 -7 -1 0 -8 15 -16 27 -14 28 -17 13 -33 -9 -10 -16 -23 -16 -29 0 -6 -8 -9 -17 -6 -10 3 -4 -2 12 -12 70 -39 135 -115 172 -203 14 -31 22 -46 20 -33 -4 19 -2 22 13 17 10 -3 21 -1 25 5 10 16 25 2 25 -23 0 -16 3 -18 9 -8 12 18 50 5 60 -22 7 -17 9 -12 15 27 4 27 15 60 23 73 18 27 8 44 -27 50 -14 2 -20 -3 -20 -16 0 -24 16 -36 26 -20 4 8 3 9 -4 5 -7 -4 -12 -1 -12 8 0 13 23 17 35 5 2 -3 -4 -22 -14 -42 l-19 -37 -22 61 c-42 112 -162 265 -224 285 -20 7 -20 8 4 14 18 4 25 13 25 30 0 22 -4 25 -37 24 -31 -1 -38 2 -38 18 0 14 -6 19 -22 16 -28 -4 -31 -36 -6 -52 13 -8 23 -8 38 2 31 19 60 15 60 -8 0 -13 -7 -20 -20 -20 -22 0 -27 16 -7 23 6 2 5 3 -3 3 -8 -1 -14 -10 -13 -20 1 -12 -4 -15 -15 -10 -51 21 -111 34 -155 34 l-50 0 19 21 c19 22 19 22 -2 9 -28 -18 -61 -6 -44 15 7 9 8 15 2 15 -17 0 -22 -29 -7 -44 11 -11 12 -16 2 -19 -6 -3 3 -6 20 -6 31 -1 32 -2 21 -26 -6 -14 -17 -25 -23 -25 -16 0 -47 35 -38 43 16 16 -27 5 -86 -23 -85 -40 -175 -134 -224 -232 -20 -40 -37 -66 -37 -57 0 22 -28 45 -39 33 -5 -5 -5 -18 0 -29 9 -18 9 -18 5 3 -3 15 0 22 7 19 7 -2 12 -10 12 -18 0 -8 3 -17 8 -20 4 -3 4 -20 1 -37 l-6 -32 -19 37 c-11 21 -19 43 -19 51 0 7 -5 10 -10 7 -6 -4 -1 17 10 45 27 70 49 110 58 109 18 -3 26 2 14 9 -10 7 -7 15 10 37 l22 29 6 -25 c4 -17 13 -24 30 -24 13 0 25 6 28 14 3 8 0 11 -7 7 -7 -5 -11 1 -11 15 0 16 -5 20 -20 16 -36 -9 -21 12 41 58 58 43 87 57 74 35 -12 -20 6 -51 28 -48 25 3 30 29 7 35 -13 4 -13 3 0 -6 18 -12 7 -26 -15 -18 -22 9 -19 37 5 37 10 0 31 -5 45 -12 21 -10 29 -9 43 5 13 14 14 21 5 36 -10 15 -10 21 0 24 7 3 3 6 -8 6 -11 0 -45 -10 -75 -22z m735 -704 c-20 -49 -19 -54 9 -47 22 5 26 3 26 -14 0 -41 -19 -72 -44 -72 -16 0 -26 -7 -30 -22 l-7 -23 -12 25 c-7 14 -21 25 -32 25 -17 0 -20 8 -23 48 -3 46 -2 48 17 38 29 -16 32 -14 21 15 -16 40 -13 44 36 44 40 0 45 -2 39 -17z"/>
<path d="M2476 3579 c-3 -17 -6 -40 -6 -51 0 -10 -9 -28 -20 -40 -22 -23 -26 -68 -10 -98 9 -17 4 -21 -45 -36 -30 -10 -53 -20 -50 -22 2 -2 25 3 51 12 26 9 50 14 52 11 6 -6 -118 -65 -138 -66 -10 0 -11 -2 -3 -5 7 -3 33 4 59 16 l47 20 -19 -21 c-10 -12 -46 -35 -79 -50 -33 -16 -55 -29 -48 -29 25 0 70 23 121 61 l52 40 45 -31 c25 -17 45 -36 45 -43 0 -8 2 -9 8 -1 4 6 14 14 22 17 10 5 9 6 -5 5 -20 -2 -105 48 -105 62 0 15 28 30 44 24 22 -8 74 14 86 37 16 29 11 63 -12 95 -18 24 -30 30 -57 28 l-33 -2 6 49 c7 54 2 66 -8 18z m87 -101 c23 -27 22 -71 -4 -94 -23 -20 -104 -28 -107 -9 -1 5 -5 27 -8 48 -12 75 69 113 119 55z"/>
<path d="M1840 3519 c0 -7 -7 -20 -15 -29 -8 -9 -18 -30 -21 -48 -5 -26 -1 -36 25 -62 22 -23 39 -31 58 -29 29 3 53 -6 53 -20 0 -5 -19 -21 -41 -36 -31 -20 -49 -25 -70 -21 -25 5 -29 2 -29 -16 0 -21 -1 -21 -13 -4 -8 11 -21 16 -33 13 -17 -4 -16 -5 4 -6 27 -1 30 -31 7 -75 -14 -25 -14 -27 0 -16 13 11 15 9 15 -13 0 -23 -4 -25 -32 -23 -18 2 -22 1 -9 -1 21 -4 23 -8 18 -50 -3 -28 -1 -40 4 -32 7 11 9 11 9 -3 0 -9 -6 -19 -12 -21 -7 -3 -3 -6 8 -6 17 -1 20 4 16 24 -4 24 14 172 25 201 3 8 14 14 25 14 18 0 19 -5 14 -57 l-5 -58 12 57 c10 50 18 62 54 88 l42 31 47 -36 c45 -35 105 -65 128 -65 6 0 -16 13 -49 29 -33 16 -69 36 -80 45 -21 18 -20 18 45 -1 8 -3 -13 10 -48 28 -70 36 -76 47 -12 24 23 -8 48 -15 54 -14 6 0 -7 7 -29 15 -22 8 -46 17 -54 19 -11 4 -12 8 -3 17 7 7 12 15 12 20 0 4 -11 -4 -25 -17 -26 -27 -54 -31 -85 -15 -46 25 -49 99 -5 123 19 10 21 14 9 25 -11 10 -14 10 -14 1z"/>
<path d="M2552 3113 c-3 -80 -22 -103 -86 -103 -43 0 -45 1 -49 33 l-4 32 -1 -32 c-2 -31 -4 -33 -42 -33 l-40 0 0 44 c0 34 4 46 18 49 9 3 3 5 -14 6 -19 1 -40 11 -54 26 -13 14 -29 25 -36 25 -19 0 -27 -19 -15 -34 9 -10 8 -15 -4 -20 -16 -6 -19 -44 -9 -108 8 -44 23 -48 72 -18 26 16 50 20 117 20 l85 0 0 -40 0 -40 -272 -2 c-150 -1 -254 -3 -230 -5 39 -4 42 -6 42 -34 0 -38 -27 -39 -33 -1 l-4 27 -2 -27 c0 -17 -7 -28 -15 -28 -8 0 -17 12 -19 28 l-4 27 -2 -27 c-1 -34 -28 -38 -34 -5 l-4 22 -2 -22 c-1 -15 -7 -23 -20 -23 -14 0 -17 6 -13 28 6 34 -3 26 -12 -10 l-6 -28 60 0 60 0 -4 -42 c-2 -24 -1 -31 1 -15 3 19 10 27 26 28 17 1 18 2 5 6 -41 11 -13 23 52 23 67 0 95 -14 48 -23 -20 -4 -20 -4 4 -6 22 -1 28 -6 31 -33 2 -18 3 -12 1 15 l-3 47 53 0 54 0 -3 -42 c-1 -24 0 -31 2 -15 3 21 10 27 31 28 24 2 24 2 5 6 -48 9 -20 23 47 23 65 0 93 -12 53 -23 -14 -4 -12 -5 5 -6 13 -1 22 5 22 14 0 12 13 15 56 15 56 0 56 0 50 28 -3 15 -9 49 -12 75 -7 45 -5 50 25 75 31 26 32 29 29 92 l-4 65 -2 -62z"/>
<path d="M1963 2690 c0 -30 1 -47 4 -37 3 11 14 17 34 17 26 0 29 -4 29 -30 0 -39 -27 -41 -33 -2 l-4 27 -2 -27 c-1 -29 -25 -39 -34 -15 -4 7 -6 8 -6 1 -1 -7 10 -19 24 -28 14 -9 25 -12 25 -6 0 6 27 10 65 10 49 0 65 -3 65 -14 0 -7 7 -19 15 -26 8 -7 15 -23 15 -35 0 -18 -4 -22 -19 -18 -11 3 -22 15 -24 27 -3 17 -5 15 -6 -6 0 -17 -7 -28 -15 -28 -8 0 -17 12 -19 28 l-4 27 -2 -27 c-1 -29 -15 -38 -24 -15 -3 7 -6 4 -6 -7 -1 -16 5 -18 54 -14 30 3 55 1 55 -4 0 -4 -39 -8 -86 -8 l-87 0 6 46 c3 29 1 41 -4 33 -5 -8 -9 -22 -9 -31 0 -10 -4 -18 -9 -18 -16 0 -32 -57 -28 -96 l4 -39 1 43 2 42 123 0 c73 0 117 4 108 9 -7 5 -10 14 -7 20 10 15 53 14 60 -1 4 -9 8 -9 11 -2 4 6 27 9 60 6 53 -4 55 -3 54 19 -1 16 -3 18 -6 7 -3 -13 -15 -16 -59 -15 -52 2 -54 3 -54 30 0 15 7 30 15 33 8 4 15 12 15 20 0 11 16 14 64 14 53 0 65 -3 69 -17 4 -15 5 -16 6 -2 0 9 10 19 22 22 17 4 19 10 13 29 -4 13 -7 39 -7 58 0 20 -2 25 -4 13 -4 -22 -9 -23 -93 -23 l-89 0 -4 28 c-3 17 -4 11 -5 -18 -1 -32 1 -41 8 -30 8 12 10 9 10 -12 0 -29 -14 -38 -23 -15 -3 7 -6 5 -6 -5 -1 -10 6 -18 14 -18 8 0 15 -6 15 -14 0 -7 -7 -19 -15 -26 -8 -7 -15 -23 -15 -36 0 -19 -5 -24 -25 -24 -18 0 -25 5 -25 19 0 11 -7 26 -15 35 -20 19 -19 36 3 52 16 13 16 14 0 8 -15 -5 -18 0 -18 22 0 23 2 26 10 14 7 -11 9 -4 8 25 0 23 -3 30 -5 18 -4 -22 -9 -23 -93 -23 l-89 0 -4 33 c-2 18 -4 8 -4 -23z"/>
<path d="M1982 2438 c-18 -18 -15 -55 6 -68 14 -9 11 -10 -15 -7 -18 2 -33 0 -33 -5 0 -4 7 -8 15 -8 10 0 15 -16 18 -57 l3 -58 2 58 2 57 122 0 c67 0 118 3 115 7 -4 3 1 15 10 25 19 21 12 42 -20 62 -38 24 -74 -35 -42 -68 15 -15 10 -16 -67 -16 -61 1 -78 3 -65 11 32 19 15 79 -23 79 -9 0 -21 -5 -28 -12z"/>
</g>
</svg>
