<?xml version="1.0" standalone="no"?>
<!DOCTYPE svg PUBLIC "-//W3C//DTD SVG 20010904//EN"
 "http://www.w3.org/TR/2001/REC-SVG-20010904/DTD/svg10.dtd">
<svg version="1.0" xmlns="http://www.w3.org/2000/svg"
 width="438.000000pt" height="569.000000pt" viewBox="0 0 438.000000 569.000000"
 preserveAspectRatio="xMidYMid meet">

<g transform="translate(0.000000,569.000000) scale(0.100000,-0.100000)"
fill="#000000" stroke="none">
<path d="M2017 5460 c-700 -83 -1308 -605 -1631 -1400 -455 -1122 -222 -2508
555 -3290 456 -459 1047 -643 1618 -505 982 238 1687 1382 1648 2675 -13 407
-82 749 -225 1110 -297 753 -877 1280 -1537 1395 -105 19 -330 26 -428 15z
m189 -125 c1 -11 5 -66 8 -122 l6 -103 -34 0 c-29 0 -44 10 -91 58 l-57 57 5
-62 5 -63 -29 0 c-16 0 -32 0 -36 0 -9 -1 -9 6 -18 133 l-7 104 31 5 c28 4 39
-2 93 -56 l61 -61 -6 61 c-4 34 -3 64 0 68 4 4 21 6 37 4 20 -2 30 -9 32 -23z
m228 -3 c10 -16 58 -244 53 -249 -12 -11 -66 10 -72 27 -4 12 -19 22 -43 26
-29 6 -38 3 -49 -13 -10 -14 -21 -18 -49 -15 -42 5 -43 0 32 133 53 95 57 99
89 99 19 0 36 -4 39 -8z m-578 -57 c37 -24 56 -60 56 -108 0 -79 -53 -127
-141 -127 -47 0 -57 4 -87 34 -32 32 -40 57 -34 111 10 90 128 142 206 90z
m786 7 c4 -4 -4 -41 -18 -82 -13 -41 -24 -80 -24 -86 0 -7 14 -15 31 -19 27
-6 30 -10 24 -33 -4 -15 -8 -29 -11 -31 -5 -6 -124 31 -129 40 -3 4 11 57 31
119 36 110 37 111 63 105 14 -3 29 -9 33 -13z m-1033 -178 c28 -58 51 -107 51
-110 0 -2 -14 -10 -30 -19 l-30 -16 -50 102 c-28 56 -50 107 -50 114 0 10 33
32 51 34 3 1 29 -47 58 -105z m1335 50 c52 -29 76 -58 76 -92 0 -34 -17 -60
-50 -77 -27 -14 -33 -14 -67 0 -36 15 -38 15 -55 -7 -10 -13 -18 -26 -18 -30
0 -13 -17 -9 -41 11 l-23 18 58 102 c32 55 62 101 66 101 4 0 28 -12 54 -26z
m-1480 -29 c23 -34 21 -54 -4 -48 -27 7 -60 -23 -60 -54 0 -27 33 -63 58 -63
22 0 34 9 54 39 l17 24 20 -34 c19 -31 19 -34 3 -52 -24 -27 -66 -47 -100 -47
-35 0 -92 37 -109 70 -29 58 -7 136 50 170 42 26 51 25 71 -5z m1694 -115 c47
-37 48 -39 29 -65 -14 -17 -15 -17 -45 0 -41 25 -55 10 -20 -20 27 -23 27 -24
9 -46 -18 -23 -19 -23 -46 -5 -37 25 -56 6 -21 -22 31 -24 32 -33 8 -55 -17
-16 -22 -14 -73 26 l-55 42 74 97 c48 63 79 95 86 90 6 -5 30 -24 54 -42z
m-808 -24 c678 -103 1219 -787 1365 -1726 22 -143 31 -523 16 -687 -112 -1193
-918 -2035 -1779 -1857 -354 73 -677 311 -925 682 -70 105 -192 349 -242 486
-129 352 -188 803 -155 1191 31 357 112 665 249 950 115 239 228 402 391 565
313 313 696 454 1080 396z m-1048 -72 c57 -31 105 -59 108 -61 3 -3 -8 -15
-23 -29 -22 -19 -31 -22 -46 -12 -14 9 -24 6 -49 -12 -25 -19 -30 -28 -26 -50
5 -21 0 -30 -21 -44 -23 -15 -29 -16 -36 -5 -5 8 -9 19 -9 24 0 6 -16 52 -35
104 l-35 94 22 24 c12 13 27 23 35 23 7 0 59 -25 115 -56z m2036 -64 c28 -41
28 -94 2 -138 -23 -37 -54 -52 -111 -52 -35 0 -48 7 -92 50 l-52 49 85 85 84
85 31 -23 c16 -13 40 -38 53 -56z m-2243 -81 c117 -103 110 -92 89 -124 -18
-28 -18 -28 -103 -21 l-86 6 48 -48 47 -48 -25 -24 -25 -24 -33 31 c-40 37
-94 85 -127 111 l-25 20 25 27 c24 27 27 27 110 20 l85 -6 -49 43 -49 44 18
27 c9 15 20 27 24 27 4 0 38 -27 76 -61z m2399 -86 c60 -77 41 -153 -38 -153
-31 0 -36 -4 -46 -37 -6 -21 -14 -44 -16 -52 -3 -11 -11 -8 -30 10 -26 24 -28
52 -8 104 7 18 6 18 -21 -3 -28 -22 -29 -22 -46 -5 -10 10 -19 23 -21 29 -3
11 167 154 182 154 4 0 24 -21 44 -47z m154 -218 c89 -86 41 -225 -78 -225
-56 0 -96 26 -121 78 -27 54 -20 104 18 144 53 55 126 56 181 3z m-2805 -19
c72 -30 96 -102 58 -178 -43 -87 -37 -86 -143 -22 -51 31 -97 60 -102 65 -4 4
5 30 20 58 20 36 41 57 69 71 47 24 56 24 98 6z m-4 -272 c2 -2 -2 -17 -9 -34
-9 -22 -19 -30 -37 -30 -33 0 -58 -55 -38 -85 11 -17 10 -25 -1 -48 -8 -15
-18 -27 -23 -27 -13 0 -171 173 -171 187 0 8 7 24 15 36 14 22 16 22 137 13
68 -4 125 -10 127 -12z m3001 -60 c24 -56 26 -107 4 -128 -22 -23 -62 -30 -89
-18 -22 10 -26 8 -51 -39 -29 -52 -33 -53 -53 -2 -12 28 -11 35 8 62 28 38 27
41 -9 28 -25 -10 -33 -9 -40 3 -25 40 -12 54 88 97 53 23 102 42 109 42 7 1
21 -20 33 -45z m-3181 -150 c44 -37 54 -82 32 -152 -10 -36 -23 -58 -34 -60
-20 -4 -217 68 -217 79 0 5 9 34 21 64 25 67 62 95 126 95 30 0 50 -7 72 -26z
m3259 -49 c7 -14 12 -29 12 -34 0 -4 -34 -18 -75 -31 -83 -26 -100 -39 -90
-70 8 -26 35 -26 110 0 32 11 63 20 69 20 17 0 38 -60 23 -65 -200 -73 -267
-56 -267 68 0 56 24 79 116 111 88 31 89 31 102 1z m-3370 -180 c88 -24 102
-31 102 -49 -1 -49 -11 -51 -122 -21 -56 15 -108 31 -114 34 -15 8 3 74 19 68
7 -2 58 -17 115 -32z m3446 -71 c8 -22 8 -54 -1 -54 -5 0 -57 -13 -116 -29
l-108 -29 -6 29 c-3 16 -6 32 -6 36 -1 7 178 59 214 62 9 0 20 -6 23 -15z
m-3544 -56 c0 -4 -4 -10 -10 -13 -13 -8 -13 -45 -1 -45 5 0 19 15 30 34 25 39
61 52 99 34 55 -26 64 -99 20 -161 l-20 -28 -24 22 c-21 19 -22 25 -11 38 48
56 18 76 -32 22 -40 -43 -55 -48 -94 -30 -48 22 -60 83 -27 137 20 33 20 33
45 15 13 -10 25 -21 25 -25z m3589 -143 c10 -49 17 -93 15 -97 -4 -5 -84 21
-177 57 -15 6 -17 1 -15 -41 3 -46 1 -49 -23 -52 -26 -3 -27 -1 -44 92 -9 53
-15 100 -13 105 1 4 41 -7 88 -25 47 -18 88 -33 93 -34 4 0 6 19 5 42 -3 37 0
42 22 48 30 8 26 16 49 -95z m-3575 -70 l19 -24 48 27 c26 14 50 24 52 22 3
-3 2 -22 -2 -43 -5 -32 -12 -41 -46 -56 l-40 -18 35 -6 c34 -7 36 -9 32 -43
-4 -34 -6 -36 -36 -30 -17 3 -70 11 -118 17 l-88 12 1 41 c1 89 42 143 99 131
14 -3 34 -17 44 -30z m3566 -200 c63 -33 81 -138 34 -195 -20 -24 -29 -28 -40
-19 -23 19 -27 49 -9 69 36 40 -9 94 -68 83 -35 -7 -49 -26 -45 -59 4 -32 28
-46 28 -16 0 13 8 21 24 24 29 6 36 -11 36 -86 l0 -49 -41 7 c-50 8 -82 28
-97 62 -17 37 -15 116 4 143 33 47 119 65 174 36z m-3660 -31 c0 -42 23 -43
28 -1 3 22 8 27 33 27 27 0 29 -3 29 -35 0 -24 5 -35 15 -35 10 0 15 11 15 35
0 32 2 35 30 35 28 0 30 -2 30 -37 0 -21 -3 -55 -6 -75 l-6 -37 -67 6 c-36 3
-91 8 -121 12 l-55 6 3 40 c6 83 11 95 43 95 27 0 29 -3 29 -36z m73 -198 c82
-39 97 -49 97 -69 0 -21 -14 -30 -112 -71 -62 -27 -119 -50 -125 -53 -9 -4
-13 7 -13 36 0 25 5 43 13 45 52 17 107 40 107 46 0 4 -27 18 -60 30 -56 21
-60 24 -60 55 0 54 -5 55 153 -19z m3542 -69 l108 -43 1 -37 c1 -41 12 -35
-146 -91 l-98 -35 0 38 c0 30 4 40 20 44 16 4 20 14 20 47 0 33 -4 43 -20 47
-15 4 -20 14 -20 39 0 21 5 34 13 34 7 0 62 -19 122 -43z m-3445 -183 l0 -34
-90 -2 c-49 -1 -104 -2 -122 -2 -28 -1 -32 2 -35 32 -2 17 0 33 4 33 26 4 229
14 236 11 4 -2 7 -19 7 -38z m3543 -61 c9 -5 9 -45 -1 -59 -5 -7 -34 -8 -92
-3 -47 4 -86 6 -87 5 -1 -1 -3 -16 -5 -34 -2 -29 -5 -32 -36 -32 -31 0 -34 2
-28 23 3 12 6 44 6 71 l0 48 118 -7 c64 -4 120 -9 125 -12z m-3539 -29 c13
-33 4 -50 -51 -107 l-58 -59 62 6 61 7 7 -31 c4 -17 5 -33 3 -35 -6 -7 -232
-33 -240 -28 -5 2 -8 18 -8 36 0 25 12 44 58 90 l57 59 -55 -7 c-30 -4 -59 -8
-65 -9 -5 0 -11 15 -13 35 l-3 37 83 10 c129 15 155 14 162 -4z m3429 -135
l97 -13 0 -34 0 -35 -67 7 c-123 13 -116 14 -127 -22 -8 -28 -13 -33 -35 -30
-24 3 -26 7 -23 43 5 88 11 105 35 101 12 -3 66 -10 120 -17z m-3385 -199 c26
-51 24 -102 -5 -132 -21 -20 -194 -61 -206 -49 -5 5 -7 21 -5 37 3 25 8 29 44
36 98 16 124 27 124 54 0 35 -22 39 -112 22 l-79 -15 -6 28 c-3 16 -5 32 -5
36 1 12 111 31 172 29 55 -1 55 -1 78 -46z m3390 22 c31 -20 52 -63 52 -106 0
-46 -12 -75 -45 -108 -23 -23 -36 -28 -79 -28 -99 0 -153 71 -127 168 24 87
123 124 199 74z m-943 -1402 c18 -20 18 -21 -9 -49 -34 -36 -16 -54 20 -20
l24 23 22 -22 22 -22 -24 -25 c-16 -17 -20 -29 -14 -35 7 -7 16 -4 29 10 22
24 33 25 57 3 18 -16 17 -18 -29 -65 -26 -26 -52 -47 -58 -47 -5 1 -46 39 -89
85 l-80 84 49 50 c27 28 52 50 56 50 3 0 14 -9 24 -20z m-1677 -33 c2 -8 -23
-42 -54 -76 l-57 -62 22 -23 c19 -20 21 -28 12 -45 -17 -30 -30 -26 -83 26
l-47 46 82 88 c75 80 84 86 102 75 11 -8 21 -20 23 -29z m1602 -132 c30 -41
55 -83 57 -95 8 -52 -61 -120 -121 -120 -20 0 -40 12 -68 40 -22 22 -37 32
-32 22 4 -9 9 -34 12 -55 3 -29 9 -38 28 -43 13 -3 24 -9 24 -13 0 -9 -48 -36
-64 -36 -6 0 -31 -11 -55 -24 -62 -32 -124 -25 -163 18 -17 19 -28 25 -28 17
0 -8 -13 -17 -30 -21 -17 -4 -30 -13 -30 -22 0 -12 8 -13 39 -8 36 6 39 4 45
-21 4 -14 6 -27 4 -29 -7 -5 -130 -36 -133 -33 -2 2 -13 37 -25 78 -12 41 -24
84 -27 94 -4 15 -11 9 -34 -31 -26 -45 -28 -54 -20 -104 5 -30 7 -57 5 -60 -2
-3 -18 -6 -36 -5 -27 1 -33 5 -36 26 -8 78 -15 95 -63 145 -40 42 -46 54 -34
59 36 13 74 6 93 -19 l20 -25 19 31 c16 28 29 34 112 55 51 14 95 23 97 22 9
-10 15 -58 6 -58 -6 0 -23 -5 -38 -10 -37 -15 -17 -34 25 -25 25 5 31 12 31
32 0 99 138 172 214 112 33 -26 33 -22 1 22 l-26 34 22 18 c12 9 26 17 33 17
6 0 31 -28 55 -61 48 -67 64 -77 86 -59 23 19 18 37 -32 107 l-46 65 24 19
c13 10 27 19 30 19 3 0 30 -34 59 -75z m-1442 7 l22 -17 -23 -80 c-13 -44 -24
-83 -25 -87 -2 -5 -5 -22 -9 -38 -8 -41 -18 -45 -53 -20 -26 18 -29 24 -18 37
10 13 8 19 -17 39 -17 13 -36 22 -42 19 -7 -3 -19 -7 -25 -10 -7 -3 -26 5 -41
18 l-29 22 104 68 c57 37 110 67 118 67 8 0 25 -8 38 -18z m152 -156 l0 -60
28 25 c52 47 58 50 86 39 14 -5 26 -16 26 -25 0 -21 -51 -208 -60 -218 -7 -9
-60 12 -60 23 0 4 6 28 14 53 8 26 11 47 7 47 -4 0 -22 -16 -41 -35 -19 -19
-42 -35 -52 -35 -15 0 -18 9 -19 63 0 61 0 62 -17 38 -43 -63 -48 -66 -76 -53
-14 6 -26 16 -26 21 0 6 30 52 66 104 65 93 66 94 95 84 28 -11 29 -14 29 -71z
m248 -36 c26 -7 48 -20 59 -36 15 -23 15 -28 0 -59 -10 -21 -12 -37 -7 -40 16
-10 12 -72 -6 -89 -25 -25 -55 -28 -118 -12 -33 9 -60 17 -62 19 -3 2 42 200
51 225 3 7 13 11 22 8 10 -3 37 -10 61 -16z m265 -147 c20 -65 37 -122 37
-126 0 -5 -17 -7 -37 -5 -31 2 -39 7 -41 26 -3 18 -10 22 -42 22 -29 0 -42 -5
-50 -20 -8 -14 -21 -20 -45 -20 -19 0 -35 4 -35 9 0 5 13 38 29 73 16 35 38
84 49 111 20 44 23 47 59 47 l39 0 37 -117z"/>
<path d="M2371 5222 c-10 -18 -9 -23 4 -28 22 -9 27 -1 17 27 l-9 23 -12 -22z"/>
<path d="M1742 5210 c-42 -39 -19 -100 37 -100 55 0 80 61 41 100 -26 26 -50
25 -78 0z"/>
<path d="M2906 5073 c-4 -9 -1 -20 6 -24 16 -10 43 15 34 30 -11 16 -33 13
-40 -6z"/>
<path d="M2114 4273 c23 -4 26 -7 15 -14 -10 -8 -8 -9 9 -4 23 7 32 -9 10 -18
-10 -4 -10 -6 -1 -6 16 -1 24 14 17 33 -4 11 -17 16 -43 15 -32 -2 -33 -2 -7
-6z"/>
<path d="M2197 4266 c-5 -11 1 -12 26 -6 18 5 43 11 57 13 14 2 2 5 -26 6 -36
1 -53 -3 -57 -13z"/>
<path d="M1990 4247 c-106 -44 -180 -107 -237 -204 l-28 -48 -5 120 -5 120
-217 3 -218 2 0 -1208 0 -1209 26 -103 c74 -295 266 -503 553 -600 260 -87
608 -56 826 74 192 114 323 288 393 521 l27 90 3 1217 2 1217 -217 -2 -218 -2
-5 -119 -5 -120 -37 61 c-45 72 -109 133 -177 167 -28 14 -54 26 -58 26 -4 -1
15 -13 42 -27 132 -68 227 -198 264 -362 7 -32 6 -38 -7 -37 -9 0 -17 -7 -18
-17 -1 -12 -1 -13 3 -2 2 8 9 13 14 10 16 -10 10 -25 -13 -35 -17 -6 -18 -9
-6 -9 9 -1 20 4 23 9 9 15 25 2 25 -21 0 -11 -4 -17 -10 -14 -6 4 -7 -1 -3
-11 5 -13 3 -16 -10 -11 -9 3 -17 2 -17 -3 0 -5 10 -10 23 -12 15 -2 23 -11
25 -28 l4 -25 -32 30 c-21 20 -29 36 -26 50 5 18 3 17 -13 -4 -13 -18 -23 -22
-40 -16 -22 7 -22 7 -4 27 18 21 18 21 -4 9 -13 -6 -23 -8 -23 -4 -1 4 -8 -7
-16 -26 -15 -36 -12 -67 6 -56 5 3 10 -3 10 -14 0 -16 -7 -21 -27 -22 -23 -1
-24 -3 -6 -6 l21 -4 -18 -52 c-12 -34 -24 -52 -34 -51 -9 1 -13 -2 -10 -7 3
-5 12 -9 19 -9 8 0 22 -11 30 -24 49 -74 -47 -152 -109 -90 -34 33 -9 114 35
114 10 0 11 3 2 8 -6 4 -13 21 -16 37 -4 28 -4 28 -6 -6 0 -22 -9 -43 -21 -54
-22 -20 -26 -65 -10 -95 9 -17 4 -21 -46 -37 -31 -9 -52 -19 -46 -21 5 -1 34
6 63 17 55 21 54 15 -7 -27 -11 -7 -13 -10 -6 -7 29 15 8 -13 -32 -40 -24 -16
-43 -32 -40 -34 2 -2 28 15 59 38 l55 42 45 -31 c25 -17 45 -36 45 -43 0 -8 2
-9 8 -1 4 6 14 14 22 17 10 4 8 6 -7 6 -23 1 -103 49 -103 62 0 14 21 21 63
23 69 4 103 82 57 131 -20 21 -20 23 -3 74 18 57 29 67 68 57 28 -7 34 -40 9
-50 -11 -4 -14 -13 -10 -31 4 -14 2 -25 -4 -25 -5 0 -10 5 -10 11 0 5 -4 7
-10 4 -14 -9 -12 -99 2 -113 7 -7 20 -12 29 -12 11 0 19 -11 23 -31 12 -60 9
-66 -39 -78 -25 -6 -45 -15 -44 -19 0 -4 6 -34 14 -67 13 -59 18 -54 19 20 1
22 7 31 26 36 l25 7 -26 1 c-14 1 -31 -5 -38 -11 -11 -11 -13 -10 -9 1 4 16
86 43 106 36 6 -2 12 -19 11 -37 -1 -29 -2 -30 -8 -9 -4 14 -13 26 -21 29 -11
2 -12 1 -3 -5 7 -5 15 -27 19 -50 6 -38 4 -42 -17 -46 -23 -4 -22 -4 3 -6 20
-1 28 4 31 22 3 13 5 8 6 -15 0 -21 -3 -38 -8 -38 -5 0 -5 -17 0 -42 8 -31 7
-43 -3 -49 -10 -7 -8 -9 5 -9 9 0 17 -4 17 -10 0 -5 -15 -10 -34 -10 -21 0
-34 -5 -33 -12 4 -108 -7 -1095 -12 -1073 -6 24 -9 16 -15 -44 -32 -308 -184
-501 -408 -518 -135 -10 -243 30 -329 125 -86 94 -147 257 -152 407 l-2 60 70
6 70 5 -72 2 -73 2 -2 273 c-1 149 -2 382 -3 517 l0 245 25 3 c23 3 25 7 22
37 -4 31 11 143 24 188 8 25 42 22 47 -5 4 -21 4 -21 6 -2 0 12 20 34 47 53
l45 33 22 -20 c26 -23 77 -56 77 -49 0 2 -18 16 -40 31 -23 15 -38 31 -35 36
3 5 -7 16 -22 24 -36 20 -26 20 27 1 23 -8 48 -15 54 -14 6 0 -7 7 -29 15 -22
8 -46 17 -54 19 -11 4 -12 8 -3 17 7 7 12 15 12 20 0 4 -11 -4 -25 -17 -13
-14 -36 -25 -50 -25 -28 0 -75 40 -75 64 0 30 19 64 39 71 16 5 18 9 9 19 -10
11 -15 9 -25 -8 -41 -71 -42 -89 -3 -128 21 -21 38 -29 57 -27 29 3 53 -6 53
-20 0 -5 -19 -21 -41 -36 -30 -19 -49 -25 -68 -21 -14 3 -37 8 -51 11 -24 5
-24 5 -2 -4 12 -6 22 -18 22 -28 0 -16 -1 -15 -13 1 -8 11 -21 16 -33 13 -17
-4 -16 -5 4 -6 25 -1 29 -22 12 -66 -7 -17 -7 -24 0 -20 6 3 10 -5 10 -19 0
-22 -4 -24 -32 -22 -18 2 -22 1 -9 -1 21 -4 23 -8 18 -50 -3 -28 -1 -40 4 -32
7 11 9 10 9 -4 0 -15 -6 -18 -32 -13 -25 5 -28 4 -13 -3 17 -8 14 -10 -17 -10
-21 -1 -38 4 -38 9 0 6 3 10 8 10 4 0 7 22 7 49 0 27 -3 47 -7 44 -5 -2 -8 10
-8 28 0 26 2 30 15 19 8 -6 22 -10 32 -7 14 4 13 5 -5 6 -20 1 -22 5 -17 44 3
35 3 37 -4 12 -8 -28 -9 -28 -10 -5 0 14 2 35 5 48 6 19 11 22 38 18 17 -3 25
-3 19 0 -8 3 -13 24 -13 50 0 41 3 46 30 55 29 11 30 13 30 72 0 73 -13 69
-14 -5 -1 -46 -4 -53 -22 -56 -12 -2 -26 -13 -31 -25 l-10 -22 -7 23 c-5 14
-15 22 -31 22 -26 0 -35 17 -35 66 l0 34 27 -17 c26 -17 27 -17 20 0 -4 11
-10 30 -13 43 -6 23 -4 24 36 24 l42 0 -6 -35 c-7 -33 5 -48 19 -25 3 6 2 10
-3 10 -5 0 -7 11 -4 25 3 17 -1 27 -12 31 -21 8 -21 44 0 44 8 0 12 5 9 11 -4
6 1 17 11 24 11 8 14 15 7 15 -6 0 -15 -4 -18 -10 -10 -15 -25 -12 -25 6 0 19
-42 16 -46 -4 -1 -7 0 -8 3 -2 8 16 20 12 26 -9 3 -14 0 -17 -15 -13 -11 3
-23 0 -27 -6 -3 -5 -7 12 -8 39 -1 42 2 49 18 49 10 0 19 4 19 10 0 5 -6 7
-12 5 -9 -4 -14 7 -16 30 -2 32 0 34 17 23 15 -9 23 -9 36 2 16 13 17 9 11
-45 -3 -33 -2 -49 2 -37 7 23 8 23 23 5 25 -28 34 -64 18 -74 -11 -7 -10 -9 4
-9 11 0 25 -16 37 -42 11 -24 20 -37 20 -30 0 7 -7 26 -15 42 l-16 30 31 0
c21 0 30 5 30 17 0 9 -3 13 -7 10 -3 -4 -11 2 -17 12 -6 10 -17 28 -24 40 -11
18 -10 20 4 14 14 -5 15 -3 5 15 -9 18 -9 22 3 22 9 0 18 -18 24 -47 8 -38 10
-42 11 -18 5 120 97 271 197 324 22 11 33 20 26 21 -7 0 -10 4 -7 10 4 6 -1 7
-10 3 -10 -3 -21 0 -26 8 -6 9 -9 10 -9 2 0 -7 7 -16 15 -20 12 -7 6 -16 -30
-41 -33 -23 -45 -27 -45 -16 0 8 -10 18 -21 23 -21 7 -20 9 16 38 30 25 45 31
76 28 22 -2 39 1 39 7 0 6 -7 8 -15 4 -19 -7 -19 -2 -2 16 12 11 12 16 0 26
-9 9 -13 9 -13 1 0 -6 -7 -9 -14 -6 -10 4 -13 1 -10 -8 3 -7 -4 -18 -15 -25
-16 -8 -21 -8 -21 2 0 10 -2 10 -9 -1 -6 -9 -18 -12 -36 -7 -27 7 -27 7 -9 27
10 11 26 18 36 16 10 -3 18 -1 18 5 0 5 4 6 10 3 5 -3 7 0 4 8 -3 8 6 18 21
25 33 15 33 15 38 -5 4 -17 5 -17 6 0 1 22 14 22 34 -1 21 -23 21 -30 0 -34
-9 -2 27 -3 80 -3 53 0 89 2 81 5 -13 5 -12 9 5 24 11 10 24 15 29 12 6 -3 12
0 15 8 6 14 -12 26 -36 26 -8 0 -8 -3 1 -8 9 -6 6 -14 -12 -31 l-24 -22 -22
28 -22 28 29 6 c21 5 14 7 -26 8 l-54 1 19 22 c15 18 16 20 2 9 -10 -7 -27
-11 -38 -8 -11 3 -20 1 -20 -4 0 -5 6 -9 13 -9 8 0 7 -4 -3 -10 -11 -7 -7 -10
17 -10 31 0 32 -1 21 -25 -6 -14 -17 -25 -23 -25 -16 0 -47 35 -38 43 14 15
-25 6 -72 -17 -107 -51 -197 -144 -251 -261 -12 -27 -23 -43 -23 -34 -1 9 -9
23 -18 30 -16 13 -17 12 -5 -3 8 -9 11 -21 8 -27 -3 -5 -1 -11 4 -13 6 -2 8
-16 4 -35 l-6 -33 -18 35 c-32 63 -32 81 -1 150 17 36 34 65 38 64 19 -3 27 2
15 9 -10 7 -7 15 10 37 l22 29 6 -25 c7 -28 44 -38 54 -14 3 9 2 13 -4 10 -6
-3 -10 4 -10 16 0 16 -5 20 -20 16 -36 -9 -21 12 41 58 67 49 79 54 72 27 -5
-23 21 -46 43 -38 18 7 14 28 -7 34 -12 3 -12 2 1 -7 18 -12 7 -26 -15 -18
-22 9 -19 37 5 37 10 0 31 -5 45 -12 21 -10 29 -9 43 5 13 14 14 21 5 36 -10
15 -10 21 0 24 7 3 3 6 -8 6 -11 0 -45 -10 -75 -22z m43 -17 c5 -21 27 -28 27
-9 0 5 -4 7 -10 4 -5 -3 -10 -1 -10 4 0 6 7 11 15 11 20 0 19 -29 -1 -37 -8
-3 -20 -1 -27 6 -6 6 -25 11 -41 12 l-31 1 30 13 c40 19 42 18 48 -5z m197
-92 c0 -5 -16 -8 -35 -8 l-36 0 17 32 16 31 19 -24 c10 -13 19 -27 19 -31z
m-377 -48 c3 -13 0 -20 -9 -20 -8 0 -14 9 -14 20 0 11 4 20 9 20 5 0 11 -9 14
-20z m116 -28 c11 -2 10 -6 -4 -22 -22 -25 -32 -25 -38 -2 -4 13 -5 11 -6 -5
-1 -19 -7 -23 -32 -23 -28 0 -30 2 -18 17 33 42 32 42 98 35z m-59 -69 c-1
-10 -26 -43 -33 -43 -3 0 -8 8 -11 18 -3 10 -4 6 -3 -8 2 -20 -3 -26 -25 -28
-34 -4 -35 7 -3 42 22 24 75 37 75 19z m60 -17 c0 -17 -14 -29 -23 -20 -8 8 3
34 14 34 5 0 9 -6 9 -14z m-21 -35 c7 -5 2 -20 -16 -46 -15 -22 -28 -34 -31
-27 -6 20 -20 13 -15 -8 3 -11 1 -20 -5 -20 -19 0 -19 60 1 92 15 25 21 28 28
17 7 -11 9 -10 9 6 0 15 2 17 9 6 5 -7 14 -16 20 -20z m-89 -26 c0 -14 -24
-54 -30 -50 -5 3 -10 -1 -13 -9 -3 -8 1 -17 9 -20 8 -3 22 -20 30 -38 8 -18
13 -23 10 -10 -13 51 -16 66 -10 55 3 -7 12 -13 20 -13 17 0 17 -13 0 -59 -8
-22 -15 -31 -20 -23 -4 7 -15 12 -26 12 -14 0 -17 5 -12 22 3 13 1 19 -5 15
-6 -4 -18 2 -28 13 -17 19 -17 20 1 21 17 1 17 2 2 6 -21 5 -21 5 -6 37 8 19
14 23 24 15 9 -8 11 -5 7 10 -4 17 -1 21 21 21 14 0 26 -2 26 -5z m-134 -120
c-8 -22 -36 -18 -36 5 0 22 15 27 23 8 4 -10 6 -10 6 0 1 8 -8 16 -19 19 -23
6 -22 5 -14 28 6 14 10 11 26 -14 11 -17 17 -38 14 -46z m64 -5 c8 -15 6 -21
-11 -30 -26 -15 -33 -8 -25 25 8 30 21 32 36 5z m5 -71 l-7 -33 -20 24 c-19
24 -19 24 4 36 29 16 32 13 23 -27z m829 -15 c13 -5 14 -9 5 -20 -16 -19 -26
-17 -32 6 -5 21 1 24 27 14z m-784 -56 c0 -11 -7 -18 -20 -18 -16 0 -20 7 -20
37 0 35 0 36 20 18 11 -10 20 -26 20 -37z m870 12 c9 -16 7 -22 -5 -26 -18 -7
-43 11 -31 23 4 4 11 1 16 -7 8 -12 10 -12 10 -2 0 8 -9 16 -20 19 -11 3 -20
12 -20 20 0 19 36 0 50 -27z m-60 -2 c0 -18 -6 -23 -27 -25 -19 -1 -22 1 -12
8 8 5 10 9 5 9 -11 0 14 30 25 30 5 0 9 -10 9 -22z m-930 -68 c0 -11 -4 -20
-10 -20 -5 0 -10 9 -10 20 0 11 5 20 10 20 6 0 10 -9 10 -20z m970 0 c0 -11
-4 -20 -10 -20 -5 0 -10 9 -10 20 0 11 5 20 10 20 6 0 10 -9 10 -20z m35 -47
c-20 -49 -19 -54 9 -47 22 5 26 3 26 -14 0 -41 -19 -72 -44 -72 -16 0 -26 -7
-30 -22 -7 -22 -7 -22 -15 -3 -4 11 -19 22 -32 25 -21 5 -24 13 -27 54 -3 45
-2 47 17 37 29 -16 32 -14 21 15 -16 40 -13 44 36 44 40 0 45 -2 39 -17z"/>
<path d="M1916 3915 c-9 -26 -7 -32 5 -12 6 10 9 21 6 23 -2 3 -7 -2 -11 -11z"/>
<path d="M2330 4260 l25 -8 -25 -2 c-18 -2 -20 -4 -7 -7 9 -2 17 -9 17 -14 0
-6 -6 -7 -12 -4 -7 4 -4 -1 7 -11 20 -16 20 -16 -3 -11 -12 3 -20 1 -16 -4 7
-12 41 -11 49 1 3 6 17 10 31 10 18 0 24 -5 24 -21 0 -17 -5 -20 -25 -17 -14
3 -22 1 -18 -5 3 -5 -4 -7 -18 -3 -20 6 -19 4 5 -10 28 -16 29 -17 11 -30 -25
-19 -43 -18 -48 4 -4 16 -5 16 -6 0 0 -10 -7 -18 -13 -18 -7 -1 0 -8 15 -16
27 -14 28 -17 13 -33 -9 -10 -16 -23 -16 -29 0 -6 -8 -9 -17 -6 -10 3 -4 -2
12 -12 75 -43 133 -110 172 -201 13 -32 22 -48 20 -35 -4 19 -2 22 13 17 10
-3 22 0 26 7 5 8 12 3 20 -17 7 -17 13 -24 14 -17 0 18 27 15 49 -7 19 -19 20
-19 27 22 3 23 13 52 22 65 14 21 13 25 -3 40 -15 13 -16 13 -7 1 9 -12 8 -23
-7 -51 l-18 -36 -31 76 c-39 94 -109 189 -180 241 -46 35 -49 40 -30 43 17 2
23 10 23 28 0 22 -4 25 -37 24 -31 -1 -38 2 -38 17 0 11 7 19 18 20 14 0 14 2
-3 9 -11 5 -29 8 -40 8 -16 0 -15 -2 5 -8z m69 -173 c-3 -27 3 -39 31 -65 35
-31 35 -31 10 -32 -15 0 -32 6 -40 13 -12 10 -12 9 -1 -5 7 -10 22 -18 33 -18
18 0 19 -2 7 -17 -13 -15 -12 -15 8 -4 19 9 22 9 17 -3 -5 -13 5 -15 34 -7 1
1 -2 10 -8 20 -7 14 -6 21 3 24 7 3 4 6 -7 6 -12 1 -16 6 -12 17 3 9 6 23 6
32 0 12 5 10 25 -8 14 -13 21 -26 16 -29 -5 -3 -3 -12 5 -19 8 -7 14 -10 14
-5 0 13 29 -32 30 -45 0 -8 -9 -12 -22 -10 -16 2 -22 9 -20 22 3 18 2 18 -13
3 -12 -13 -14 -21 -5 -37 6 -11 13 -20 16 -20 3 0 2 5 -1 10 -4 6 5 10 19 10
14 0 26 -3 26 -7 0 -17 -18 -35 -28 -29 -11 7 -24 -18 -15 -28 8 -8 10 -56 3
-56 -10 0 -45 42 -69 83 -23 37 -23 37 -2 37 12 0 21 4 21 9 0 5 -8 7 -18 5
-10 -3 -37 10 -65 32 -42 32 -46 39 -34 53 26 30 27 50 5 62 -21 11 -21 12 -3
25 29 21 37 17 34 -19z m51 8 c22 -23 22 -25 4 -26 -17 -1 -17 -2 -1 -6 17 -4
23 -33 10 -46 -9 -9 -44 23 -37 34 3 5 0 9 -5 9 -6 0 -11 14 -11 30 0 37 9 38
40 5z m-83 -60 c-6 -17 -37 -18 -37 -1 0 9 8 14 20 13 11 -1 19 -6 17 -12z
m236 -155 c4 -14 0 -20 -11 -20 -14 0 -15 -2 -3 -9 12 -8 12 -12 2 -25 -19
-23 -33 -9 -28 29 8 57 28 70 40 25z m27 -82 c0 -19 -5 -21 -33 -10 -16 7 -16
9 -1 31 13 18 18 20 25 10 5 -8 9 -22 9 -31z"/>
<path d="M2480 3903 c0 -6 8 -17 18 -24 16 -13 16 -13 2 6 -8 11 -16 22 -17
24 -2 2 -3 0 -3 -6z"/>
<path d="M2505 3840 c-3 -6 1 -7 9 -4 18 7 21 14 7 14 -6 0 -13 -4 -16 -10z"/>
<path d="M2207 4244 c-9 -10 4 -34 18 -34 8 0 17 5 21 12 4 7 3 8 -4 4 -7 -4
-17 -4 -23 0 -8 4 -7 9 2 15 8 5 9 9 3 9 -6 0 -13 -3 -17 -6z"/>
<path d="M2388 4193 c7 -3 16 -2 19 1 4 3 -2 6 -13 5 -11 0 -14 -3 -6 -6z"/>
<path d="M1882 4158 c-7 -7 -12 -19 -11 -27 0 -10 4 -7 9 7 10 25 29 28 50 10
12 -11 12 -10 1 5 -16 20 -32 22 -49 5z"/>
<path d="M2454 4155 c-3 -8 -4 -20 -1 -27 3 -7 6 -3 6 10 1 14 7 22 19 22 9 0
13 -4 7 -8 -13 -9 -17 -32 -6 -32 5 0 12 8 14 18 3 9 5 3 6 -15 1 -40 10 -63
24 -63 7 0 7 4 -1 12 -7 7 -12 26 -12 43 0 47 -42 77 -56 40z"/>
<path d="M1895 4141 c-3 -5 -2 -12 3 -15 5 -3 9 1 9 9 0 17 -3 19 -12 6z"/>
<path d="M2525 4110 c-4 -7 -2 -17 4 -23 9 -9 11 -8 6 6 -7 18 10 24 18 7 3
-6 4 -5 3 2 -3 16 -23 21 -31 8z"/>
<path d="M2147 4085 c-15 -14 -24 -25 -19 -25 5 0 17 9 27 20 23 26 32 25 31
-2 -1 -16 -9 -25 -26 -29 -18 -5 -10 -7 25 -8 28 -1 61 -3 75 -6 14 -3 8 1
-12 8 -50 16 -68 35 -48 47 9 6 19 5 25 -1 6 -6 5 -13 -5 -19 -9 -6 -10 -10
-3 -10 17 0 24 15 17 34 -9 24 -55 19 -87 -9z"/>
<path d="M2273 4063 c9 -2 25 -2 35 0 9 3 1 5 -18 5 -19 0 -27 -2 -17 -5z"/>
<path d="M1807 4030 c4 -13 0 -26 -8 -32 -12 -8 -11 -9 1 -5 18 5 26 35 11 50
-7 7 -8 3 -4 -13z"/>
<path d="M2566 4034 c-4 -11 0 -24 10 -33 9 -9 14 -11 11 -5 -4 7 2 14 14 17
26 7 20 31 -8 35 -12 2 -23 -4 -27 -14z m44 -5 c0 -6 -7 -9 -15 -5 -8 3 -15 0
-15 -6 0 -6 -3 -9 -6 -5 -9 9 5 27 22 27 8 0 14 -5 14 -11z"/>
<path d="M1780 4020 c-13 -8 -12 -10 3 -10 9 0 17 5 17 10 0 12 -1 12 -20 0z"/>
<path d="M2006 4013 c-6 -14 -5 -15 5 -6 7 7 10 15 7 18 -3 3 -9 -2 -12 -12z"/>
<path d="M2102 3998 c-28 -28 -3 -72 39 -66 30 4 47 33 33 56 -14 21 -55 27
-72 10z"/>
<path d="M2210 3991 c-20 -39 22 -82 60 -61 22 12 27 49 8 68 -18 18 -56 14
-68 -7z"/>
<path d="M1742 3978 c-16 -16 -15 -33 3 -48 12 -10 18 -10 30 0 8 7 15 19 15
26 0 16 -26 19 -35 4 -4 -6 1 -7 11 -3 11 4 15 2 12 -7 -7 -21 -27 -24 -35 -4
-4 11 0 22 12 30 10 8 14 14 9 14 -6 0 -15 -5 -22 -12z"/>
<path d="M2628 3972 c9 -10 19 -17 21 -16 6 5 -20 34 -30 34 -5 0 -1 -8 9 -18z"/>
<path d="M2595 3960 c-4 -6 -1 -17 5 -25 14 -16 36 -20 44 -7 3 5 -4 8 -16 8
-12 -1 -23 5 -26 13 -3 10 0 12 12 8 10 -4 15 -3 11 3 -8 13 -22 13 -30 0z"/>
<path d="M2009 3941 c-21 -16 -22 -22 -11 -45 19 -42 82 -30 82 15 0 18 -25
49 -40 49 -4 0 -18 -8 -31 -19z"/>
<path d="M2310 3931 c-15 -29 3 -61 34 -61 30 0 48 22 44 52 -4 32 -62 39 -78
9z"/>
<path d="M1717 3879 c4 -13 8 -18 11 -10 2 7 -1 18 -6 23 -8 8 -9 4 -5 -13z"/>
<path d="M2630 3881 c0 -24 16 -36 26 -20 5 8 3 9 -6 4 -10 -6 -12 -3 -8 13 4
12 2 22 -3 22 -5 0 -9 -9 -9 -19z"/>
<path d="M2145 3885 c23 -8 125 -11 113 -4 -7 5 -38 8 -68 8 -30 0 -50 -2 -45
-4z"/>
<path d="M2073 3851 c-40 -29 -78 -92 -69 -114 3 -8 5 -8 5 1 2 36 38 87 80
113 25 16 40 29 34 29 -5 0 -28 -13 -50 -29z"/>
<path d="M1936 3844 c-31 -31 -13 -74 31 -74 21 0 43 25 43 49 0 14 -29 41
-45 41 -7 0 -21 -7 -29 -16z"/>
<path d="M2327 3828 c17 -20 34 -46 38 -58 4 -12 9 -19 12 -17 8 9 -24 61 -53
87 -27 23 -26 23 3 -12z"/>
<path d="M2398 3849 c-22 -12 -23 -52 -3 -69 8 -7 25 -10 39 -6 33 8 43 42 20
67 -19 21 -31 23 -56 8z"/>
<path d="M1693 3749 c23 -14 21 -37 -5 -60 l-23 -20 28 17 c15 9 27 24 27 33
0 19 -19 41 -34 41 -6 0 -3 -5 7 -11z"/>
<path d="M1906 3734 c-31 -31 -13 -74 31 -74 21 0 43 25 43 49 0 14 -29 41
-45 41 -7 0 -21 -7 -29 -16z"/>
<path d="M2422 3738 c-7 -7 -12 -25 -12 -40 0 -21 6 -29 25 -34 31 -8 55 10
55 40 0 26 -18 46 -40 46 -9 0 -21 -5 -28 -12z"/>
<path d="M2518 3698 l5 -58 -54 -1 c-30 0 -64 -2 -76 -5 -13 -2 -23 1 -23 6 0
6 -68 10 -182 10 -116 0 -178 -4 -168 -10 9 -5 -14 -7 -63 -3 l-76 6 12 -26
c12 -26 12 -26 18 -4 5 21 5 21 12 -4 9 -37 90 -109 122 -109 29 0 65 32 64
58 0 13 -2 14 -6 2 -11 -29 -36 -50 -61 -50 -25 0 -112 76 -112 99 0 7 27 11
80 11 74 0 81 -2 90 -22 6 -17 9 -18 9 -6 1 9 -9 24 -21 32 -21 15 -13 16 107
16 l128 0 -22 -24 c-15 -16 -21 -32 -18 -48 4 -22 4 -22 6 3 2 40 19 49 98 49
83 0 87 -5 46 -58 -15 -20 -21 -32 -14 -28 7 5 25 27 39 50 28 43 31 46 57 46
8 0 15 7 15 16 0 10 6 14 15 10 12 -4 13 -2 2 15 -10 16 -9 21 3 29 12 8 11
10 -7 10 -14 0 -23 7 -26 23 -3 12 -2 -4 1 -35z"/>
<path d="M2382 3720 c0 -14 2 -19 5 -12 2 6 2 18 0 25 -3 6 -5 1 -5 -13z"/>
<path d="M2151 3610 c-1 -14 -15 -49 -31 -79 -17 -30 -30 -59 -29 -65 0 -6 4
-1 9 12 8 18 15 21 37 16 19 -4 24 -3 15 4 -11 7 -6 12 17 20 29 10 31 14 29
54 l-1 43 -4 -42 c-3 -34 -8 -42 -30 -48 -34 -8 -37 -2 -18 35 9 17 14 41 12
53 -4 20 -4 20 -6 -3z"/>
<path d="M2231 3617 c-1 -10 8 -35 19 -57 25 -49 25 -48 -2 -61 -23 -9 -23 -9
1 -5 14 3 31 0 37 -5 7 -6 1 13 -13 43 -14 29 -29 64 -34 78 -5 17 -8 19 -8 7z"/>
<path d="M2012 3598 c-17 -17 -15 -43 5 -59 15 -13 15 -12 3 7 -7 12 -10 29
-7 38 7 18 52 22 60 6 3 -6 4 -5 3 2 -3 18 -48 22 -64 6z"/>
<path d="M2322 3598 c-17 -17 -15 -43 5 -59 15 -13 15 -12 3 7 -25 41 14 73
50 42 12 -11 12 -10 1 5 -16 20 -42 22 -59 5z"/>
<path d="M2481 3594 c0 -11 3 -14 6 -6 3 7 2 16 -1 19 -3 4 -6 -2 -5 -13z"/>
<path d="M1912 3555 c0 -16 2 -22 5 -12 2 9 2 23 0 30 -3 6 -5 -1 -5 -18z"/>
<path d="M2062 3544 c-7 -8 -8 -14 -3 -14 10 0 25 19 20 25 -2 1 -10 -3 -17
-11z"/>
<path d="M2372 3544 c-7 -8 -8 -14 -3 -14 10 0 25 19 20 25 -2 1 -10 -3 -17
-11z"/>
<path d="M2290 3536 c0 -2 8 -10 18 -17 15 -13 16 -12 3 4 -13 16 -21 21 -21
13z"/>
<path d="M2220 3520 c8 -5 20 -10 25 -10 6 0 3 5 -5 10 -8 5 -19 10 -25 10 -5
0 -3 -5 5 -10z"/>
<path d="M2360 3514 c-24 -9 -29 -13 -14 -13 11 -1 29 6 40 14 22 17 20 17
-26 -1z"/>
<path d="M1902 3511 c-11 -6 -8 -10 10 -14 14 -4 30 -17 36 -29 6 -13 11 -18
11 -11 2 22 -43 64 -57 54z"/>
<path d="M1846 3474 c-19 -18 -21 -65 -4 -82 20 -20 76 -15 88 7 16 31 12 59
-12 75 -29 20 -52 20 -72 0z"/>
<path d="M2183 3483 c9 -2 23 -2 30 0 6 3 -1 5 -18 5 -16 0 -22 -2 -12 -5z"/>
<path d="M2470 3470 c-24 -24 -25 -38 -4 -68 29 -42 104 -17 104 35 0 20 -38
53 -60 53 -11 0 -29 -9 -40 -20z"/>
<path d="M2163 3453 c20 -2 54 -2 75 0 20 2 3 4 -38 4 -41 0 -58 -2 -37 -4z"/>
<path d="M2300 3387 c-5 -62 -4 -67 15 -67 13 0 16 3 8 8 -6 4 -13 34 -15 67
l-3 60 -5 -68z"/>
<path d="M2082 3410 c0 -14 2 -19 5 -12 2 6 2 18 0 25 -3 6 -5 1 -5 -13z"/>
<path d="M2082 3360 c0 -14 2 -19 5 -12 2 6 2 18 0 25 -3 6 -5 1 -5 -13z"/>
<path d="M2063 3323 c9 -2 23 -2 30 0 6 3 -1 5 -18 5 -16 0 -22 -2 -12 -5z"/>
<path d="M2148 3313 c23 -2 61 -2 85 0 23 2 4 4 -43 4 -47 0 -66 -2 -42 -4z"/>
<path d="M2020 3300 c8 -5 20 -10 25 -10 6 0 3 5 -5 10 -8 5 -19 10 -25 10 -5
0 -3 -5 5 -10z"/>
<path d="M2330 3295 c-19 -7 -28 -14 -20 -14 8 0 29 6 45 14 39 17 21 18 -25
0z"/>
<path d="M2068 3283 c7 -3 16 -2 19 1 4 3 -2 6 -13 5 -11 0 -14 -3 -6 -6z"/>
<path d="M1708 3273 c7 -3 16 -2 19 1 4 3 -2 6 -13 5 -11 0 -14 -3 -6 -6z"/>
<path d="M2108 3273 c6 -2 18 -2 25 0 6 3 1 5 -13 5 -14 0 -19 -2 -12 -5z"/>
<path d="M2258 3273 c6 -2 18 -2 25 0 6 3 1 5 -13 5 -14 0 -19 -2 -12 -5z"/>
<path d="M2173 3263 c9 -2 23 -2 30 0 6 3 -1 5 -18 5 -16 0 -22 -2 -12 -5z"/>
<path d="M2090 3230 c8 -5 22 -9 30 -9 10 0 8 3 -5 9 -27 12 -43 12 -25 0z"/>
<path d="M2275 3230 c-13 -6 -15 -9 -5 -9 8 0 22 4 30 9 18 12 2 12 -25 0z"/>
<path d="M2542 3205 c0 -16 2 -22 5 -12 2 9 2 23 0 30 -3 6 -5 -1 -5 -18z"/>
<path d="M2168 3213 c18 -2 45 -2 60 0 15 2 0 4 -33 4 -33 0 -45 -2 -27 -4z"/>
<path d="M1842 3185 c0 -16 2 -22 5 -12 2 9 2 23 0 30 -3 6 -5 -1 -5 -18z"/>
<path d="M2473 3170 c0 -25 2 -35 4 -22 2 12 2 32 0 45 -2 12 -4 2 -4 -23z"/>
<path d="M2116 3135 c-16 -14 -41 -25 -55 -25 -15 0 -21 -3 -14 -8 6 -4 13
-25 16 -47 l4 -40 1 43 c1 23 6 42 11 42 5 0 24 12 41 26 35 30 53 25 25 -6
-18 -19 -17 -20 3 -20 32 0 27 -18 -5 -22 -27 -3 -27 -4 5 -9 28 -5 32 -3 32
18 0 13 -4 23 -9 23 -4 0 -6 11 -3 25 6 33 -14 33 -52 0z"/>
<path d="M2225 3150 c-4 -6 -2 -17 4 -24 9 -10 8 -15 -4 -20 -10 -4 -15 -19
-15 -48 0 -55 9 -68 38 -57 30 11 28 21 -3 13 -34 -8 -32 12 3 25 l27 11 -27
-5 c-20 -4 -28 -1 -28 9 0 8 12 16 28 19 l27 4 -27 2 c-33 1 -38 21 -6 21 20
0 20 1 5 18 -34 38 -8 45 32 10 l26 -23 -24 28 c-26 28 -45 34 -56 17z"/>
<path d="M2552 3108 c-3 -74 -23 -98 -86 -98 -43 0 -45 1 -49 33 l-4 32 -1
-32 c-2 -31 -4 -33 -42 -33 l-40 0 0 44 c0 26 5 46 13 49 6 3 3 6 -8 6 -18 1
-20 -5 -20 -51 0 -50 -1 -53 -40 -75 -22 -12 -35 -23 -30 -23 6 0 25 9 43 20
28 17 48 20 115 18 l82 -3 3 -37 3 -38 -273 -2 c-150 -1 -254 -3 -230 -5 39
-4 42 -6 42 -34 0 -38 -27 -39 -33 -1 l-4 27 -2 -27 c-1 -34 -28 -38 -34 -5
l-4 22 -2 -22 c0 -13 -7 -23 -15 -23 -8 0 -17 10 -19 23 l-4 22 -2 -22 c-1
-15 -7 -23 -20 -23 -14 0 -17 6 -13 28 6 34 -3 26 -12 -10 l-6 -28 60 0 60 0
-4 -42 c-2 -24 -1 -31 1 -15 3 19 10 27 26 28 17 1 18 2 5 6 -41 11 -13 23 52
23 67 0 95 -14 48 -23 -20 -4 -20 -4 4 -6 22 -1 28 -6 31 -33 2 -18 3 -12 1
15 l-3 47 53 0 54 0 -3 -42 c-1 -24 0 -31 2 -15 3 22 9 27 33 27 16 0 31 4 34
8 3 5 -8 6 -25 4 -17 -3 -29 0 -29 7 0 7 25 11 70 11 40 0 70 -4 70 -10 0 -5
-8 -10 -17 -11 -15 0 -15 -2 2 -8 12 -5 23 -21 27 -42 5 -22 5 -16 2 19 l-5
52 57 0 c56 0 56 0 50 28 -3 15 -9 49 -12 75 -7 45 -5 51 21 71 25 20 33 21
71 13 24 -6 46 -8 48 -6 7 7 -18 109 -26 109 -4 0 -8 -16 -8 -35 0 -19 4 -35
9 -35 5 0 11 -7 15 -15 4 -11 0 -14 -17 -11 -12 3 -30 5 -39 5 -14 1 -18 13
-21 64 l-3 62 -2 -57z m-482 -228 c0 -20 -5 -30 -15 -30 -10 0 -15 10 -15 30
0 20 5 30 15 30 10 0 15 -10 15 -30z m41 8 l2 -23 4 23 c5 26 32 30 34 5 1
-17 2 -17 6 0 5 19 33 23 34 5 0 -10 2 -10 6 0 8 20 23 14 24 -10 l2 -23 4 23
c6 32 33 28 33 -6 l0 -27 -90 -1 -90 -1 0 29 c0 34 29 40 31 6z m189 -8 c0
-20 -5 -30 -15 -30 -10 0 -15 10 -15 30 0 20 5 30 15 30 10 0 15 -10 15 -30z
m152 16 c5 -8 8 -7 8 2 0 13 40 18 40 5 0 -5 3 -18 6 -30 5 -19 2 -23 -15 -23
-11 0 -21 6 -22 13 0 10 -2 10 -6 0 -7 -19 -33 -16 -34 5 -1 16 -2 16 -6 0 -7
-26 -33 -22 -34 5 l-2 22 -4 -22 c-2 -13 -11 -23 -19 -23 -8 0 -15 10 -15 23
l-2 22 -4 -22 c-7 -35 -33 -29 -33 7 l0 31 68 -2 c37 -1 70 -7 74 -13z"/>
<path d="M2648 3133 c6 -2 18 -2 25 0 6 3 1 5 -13 5 -14 0 -19 -2 -12 -5z"/>
<path d="M1921 3114 c0 -11 3 -14 6 -6 3 7 2 16 -1 19 -3 4 -6 -2 -5 -13z"/>
<path d="M1952 3093 c10 -2 18 -17 21 -36 4 -31 4 -31 5 6 2 33 -1 37 -20 36
-16 -1 -18 -3 -6 -6z"/>
<path d="M2418 3093 c6 -2 18 -2 25 0 6 3 1 5 -13 5 -14 0 -19 -2 -12 -5z"/>
<path d="M1820 3043 c-20 -11 -21 -13 -5 -11 27 3 73 -29 78 -55 4 -22 4 -22
6 1 1 19 7 22 49 24 l47 1 -45 4 c-69 5 -90 12 -98 31 -6 16 -10 16 -32 5z"/>
<path d="M2143 3039 c15 -6 27 -15 27 -21 0 -6 -12 -8 -27 -4 l-28 5 25 -11
c14 -7 28 -17 32 -23 4 -5 8 6 8 25 0 33 -2 36 -32 37 l-33 2 28 -10z"/>
<path d="M2005 3005 c23 -8 83 -10 79 -3 -3 4 -24 8 -47 7 -23 0 -37 -2 -32
-4z"/>
<path d="M2127 2969 c7 -7 15 -10 18 -7 3 3 -2 9 -12 12 -14 6 -15 5 -6 -5z"/>
<path d="M1880 2932 c0 -15 4 -20 16 -15 9 3 12 9 7 12 -4 3 -11 10 -15 15 -5
5 -8 0 -8 -12z"/>
<path d="M2053 2793 l57 -4 0 -44 0 -45 -55 0 c-41 0 -57 4 -65 18 -10 15 -10
15 -8 -3 3 -17 12 -20 71 -23 l67 -3 0 56 0 55 -62 -2 -63 -2 58 -3z"/>
<path d="M2271 2778 c1 -18 2 -19 6 -5 4 15 13 17 56 15 49 -3 52 -5 58 -33 6
-28 7 -28 8 -5 2 38 -17 50 -76 50 -49 0 -53 -2 -52 -22z"/>
<path d="M1992 2760 c0 -14 2 -19 5 -12 2 6 2 18 0 25 -3 6 -5 1 -5 -13z"/>
<path d="M1963 2690 c0 -30 1 -47 4 -37 3 11 14 17 34 17 26 0 29 -4 29 -30 0
-39 -27 -41 -33 -2 l-4 27 -2 -27 c-1 -29 -25 -39 -34 -15 -4 8 -6 7 -6 -3 -1
-8 10 -20 24 -27 14 -6 25 -7 25 -2 0 5 29 9 65 9 49 0 65 -3 65 -14 0 -7 7
-19 15 -26 8 -7 15 -23 15 -35 0 -18 -4 -22 -19 -18 -11 3 -22 15 -24 27 -3
16 -5 15 -6 -7 -1 -34 -22 -32 -32 4 -7 24 -7 24 -8 -3 -1 -16 -8 -29 -18 -32
-10 -3 8 -4 40 -2 31 1 57 -1 57 -6 0 -4 -39 -8 -86 -8 l-87 0 6 46 c3 29 1
41 -4 33 -5 -8 -9 -22 -9 -31 0 -10 -4 -18 -9 -18 -16 0 -32 -57 -28 -96 l4
-39 1 43 2 42 217 0 c200 0 216 -1 195 -16 -26 -18 -30 -62 -6 -71 13 -5 13
-7 2 -14 -9 -6 -2 -9 19 -9 l32 0 4 -92 3 -93 2 93 c2 74 5 92 17 92 9 0 15 9
14 23 -1 16 -2 18 -6 5 -2 -10 -13 -18 -24 -18 -19 0 -19 1 -3 25 16 25 16 27
-6 50 l-23 25 31 0 c26 0 31 -4 35 -27 3 -17 3 -14 2 7 -1 19 -12 60 -24 90
-20 53 -21 55 -2 70 15 13 17 23 11 70 -4 30 -8 45 -9 33 -1 -21 -6 -23 -51
-23 l-50 0 0 -34 c0 -32 -2 -35 -30 -34 -26 1 -30 5 -30 30 0 30 19 40 21 11
0 -14 2 -15 6 -3 3 8 11 18 17 22 6 4 -6 8 -26 8 -34 0 -37 2 -41 33 -3 23 -4
18 -5 -18 -1 -36 1 -46 8 -35 8 12 10 9 10 -12 0 -29 -14 -38 -23 -15 -3 7 -6
5 -6 -5 -1 -10 6 -18 14 -18 8 0 15 -6 15 -14 0 -7 -7 -19 -15 -26 -8 -7 -15
-23 -15 -36 0 -19 -5 -24 -25 -24 -16 0 -25 6 -25 16 0 9 -8 29 -17 45 -16 28
-16 29 2 44 17 12 17 14 3 9 -15 -5 -18 0 -18 22 0 23 2 26 10 14 7 -11 9 -4
8 25 0 23 -3 30 -5 18 -4 -20 -11 -23 -49 -23 -44 0 -44 0 -44 -35 0 -19 -5
-35 -11 -35 -7 0 -10 14 -7 35 4 34 3 35 -33 35 -35 0 -38 2 -42 33 -2 18 -4
8 -4 -23z m167 -50 c0 -27 -3 -30 -30 -30 -27 0 -30 3 -30 30 0 27 3 30 30 30
27 0 30 -3 30 -30z m220 0 c0 -16 -4 -30 -10 -30 -5 0 -10 14 -10 30 0 17 5
30 10 30 6 0 10 -13 10 -30z m70 16 c0 -8 3 -21 6 -30 4 -11 1 -16 -10 -16 -9
0 -16 6 -17 13 0 10 -2 10 -6 0 -10 -26 -33 -13 -33 17 0 27 3 30 30 30 19 0
30 -5 30 -14z m-22 -89 c7 -18 12 -46 12 -61 0 -16 4 -25 10 -21 6 3 10 3 10
-2 0 -4 -61 -9 -135 -9 -97 -1 -135 2 -132 10 5 16 48 20 59 4 6 -8 11 -9 14
-2 3 6 25 9 59 6 53 -4 55 -3 54 19 -1 16 -3 18 -6 7 -3 -13 -15 -16 -59 -15
-51 2 -54 3 -54 28 0 15 7 29 15 33 8 3 15 12 15 21 0 12 13 15 63 15 62 0 63
0 75 -33z m-429 -96 c-15 -5 -22 6 -14 19 6 9 10 9 16 -1 5 -8 4 -15 -2 -18z"/>
<path d="M2393 2709 c-6 -6 -35 -9 -67 -7 -31 1 -56 0 -56 -4 0 -5 29 -8 64
-8 48 0 65 4 70 15 6 18 4 19 -11 4z"/>
<path d="M2002 2520 c0 -14 2 -19 5 -12 2 6 2 18 0 25 -3 6 -5 1 -5 -13z"/>
<path d="M1982 2438 c-18 -18 -15 -55 6 -68 14 -9 11 -10 -15 -7 -18 2 -33 0
-33 -5 0 -4 7 -8 15 -8 10 0 15 -17 18 -67 l3 -68 2 68 2 67 33 0 c21 0 28 3
19 9 -11 7 -11 9 2 14 33 13 13 77 -24 77 -9 0 -21 -5 -28 -12z"/>
<path d="M2162 2438 c-17 -17 -15 -58 4 -65 13 -5 13 -7 2 -14 -8 -6 -2 -9 20
-9 18 0 31 4 28 9 -3 5 1 14 9 21 19 16 19 35 -1 54 -18 19 -45 21 -62 4z"/>
<path d="M1978 2080 c-2 -61 0 -110 5 -110 4 0 7 50 7 110 0 61 -2 110 -4 110
-3 0 -6 -50 -8 -110z"/>
<path d="M2392 2068 c-1 -48 1 -89 6 -91 4 -3 6 23 4 56 -5 111 -9 124 -10 35z"/>
<path d="M2537 1973 c18 -2 50 -2 70 0 21 2 7 4 -32 4 -38 0 -55 -2 -38 -4z"/>
<path d="M1928 1963 c6 -2 18 -2 25 0 6 3 1 5 -13 5 -14 0 -19 -2 -12 -5z"/>
<path d="M2433 1963 c9 -2 23 -2 30 0 6 3 -1 5 -18 5 -16 0 -22 -2 -12 -5z"/>
<path d="M1220 4875 c0 -16 22 -45 31 -40 15 10 11 23 -11 35 -11 6 -20 8 -20
5z"/>
<path d="M3222 4793 c-38 -45 -38 -49 -11 -63 16 -9 26 -8 45 5 31 20 38 37
30 70 -9 35 -28 31 -64 -12z"/>
<path d="M3430 4625 c-9 -11 -10 -19 -2 -27 14 -14 32 -1 32 23 0 23 -13 25
-30 4z"/>
<path d="M3526 4417 c-39 -28 -10 -107 39 -107 48 0 73 70 37 103 -22 20 -52
22 -76 4z"/>
<path d="M770 4377 c-37 -19 -34 -33 14 -61 56 -33 66 -33 66 2 0 50 -40 79
-80 59z"/>
<path d="M672 4104 c9 -9 21 -13 27 -10 20 13 11 26 -16 26 -25 0 -26 -1 -11
-16z"/>
<path d="M3754 4059 c-9 -15 12 -33 30 -26 9 4 16 13 16 22 0 17 -35 21 -46 4z"/>
<path d="M536 3898 c-19 -26 -15 -31 46 -51 51 -17 58 -15 58 19 0 48 -77 72
-104 32z"/>
<path d="M387 3336 c-4 -9 2 -17 14 -21 25 -8 34 -1 26 20 -8 19 -33 20 -40 1z"/>
<path d="M3950 2815 c0 -17 2 -18 24 -9 18 7 12 24 -10 24 -8 0 -14 -7 -14
-15z"/>
<path d="M3860 2238 c-25 -28 -26 -52 0 -78 39 -39 100 -14 100 42 0 53 -63
76 -100 36z"/>
<path d="M2638 573 c-26 -31 -29 -42 -17 -65 15 -30 28 -38 59 -38 24 1 24 1
6 15 -20 15 -20 15 0 30 10 8 27 15 37 15 23 0 21 12 -6 38 -28 27 -59 28 -79
5z"/>
<path d="M1421 656 c-9 -11 -9 -16 0 -21 10 -7 28 10 29 28 0 12 -17 8 -29 -7z"/>
<path d="M1890 489 c0 -12 5 -19 12 -17 18 6 20 25 3 31 -10 5 -15 0 -15 -14z"/>
<path d="M1866 395 c-4 -11 1 -15 19 -15 16 0 25 6 25 15 0 8 -9 15 -19 15
-10 0 -21 -7 -25 -15z"/>
<path d="M2092 410 c-6 -16 -6 -26 0 -29 16 -6 26 13 18 34 -7 19 -8 19 -18
-5z"/>
</g>
</svg>
